<svg xmlns="http://www.w3.org/2000/svg" viewBox="0 0 760 660" font-family="Helvetica, Arial, sans-serif">
<rect x="0" y="0" width="760" height="660" rx="10" fill="#ffffff"/>
<defs><radialGradient id="rg" cx="50%" cy="50%" r="50%"><stop offset="0%" stop-color="#e9f5e6"/><stop offset="62%" stop-color="#f2f8ee"/><stop offset="63%" stop-color="#fdf4dd"/><stop offset="100%" stop-color="#f7e3b8"/></radialGradient></defs>
<circle cx="380" cy="320" r="200" fill="url(#rg)" stroke="#d8d2c4"/>
<circle cx="380" cy="320" r="66" fill="none" stroke="#e2ddd0" stroke-width="1"/>
<circle cx="380" cy="320" r="132" fill="none" stroke="#e2ddd0" stroke-width="1"/>
<circle cx="380" cy="320" r="126" fill="none" stroke="#8a8880" stroke-width="2.2" stroke-dasharray="5 4"/>
<path d="M 387.3 112.1 A 208 208 0 0 1 563.7 417.7" fill="none" stroke="#6f4a9c" stroke-width="5" stroke-linecap="round"/>
<text x="607" y="189" fill="#6f4a9c" font-size="17" font-weight="700" text-anchor="middle" dominant-baseline="middle">Communities</text>
<path d="M 556.4 430.2 A 208 208 0 0 1 315.7 517.8" fill="none" stroke="#3f8f36" stroke-width="5" stroke-linecap="round"/>
<text x="470" y="566" fill="#3f8f36" font-size="17" font-weight="700" text-anchor="middle" dominant-baseline="middle">Agriculture</text>
<path d="M 302.1 512.9 A 208 208 0 0 1 174.0 291.1" fill="none" stroke="#c08a12" stroke-width="5" stroke-linecap="round"/>
<text x="153" y="451" fill="#c08a12" font-size="17" font-weight="700" text-anchor="middle" dominant-baseline="middle">Energy</text>
<path d="M 176.5 276.8 A 208 208 0 0 1 372.7 112.1" fill="none" stroke="#2b7fb0" stroke-width="5" stroke-linecap="round"/>
<text x="212" y="119" fill="#2b7fb0" font-size="17" font-weight="700" text-anchor="middle" dominant-baseline="middle">Landscapes</text>
<line x1="380" y1="320" x2="448.4" y2="132.1" stroke="#cfc8b8" stroke-width="1"/>
<text x="453" y="121" fill="#333" font-size="12.5" text-anchor="start" dominant-baseline="middle"><tspan x="453" dy="-6">Financial</tspan><tspan x="453" dy="13">Security</tspan></text>
<line x1="380" y1="320" x2="553.2" y2="220.0" stroke="#cfc8b8" stroke-width="1"/>
<text x="564" y="214" fill="#333" font-size="12.5" text-anchor="start" dominant-baseline="middle"><tspan x="564" dy="0">Livability</tspan></text>
<line x1="380" y1="320" x2="577.0" y2="354.7" stroke="#cfc8b8" stroke-width="1"/>
<text x="589" y="357" fill="#333" font-size="12.5" text-anchor="start" dominant-baseline="middle"><tspan x="589" dy="0">Health</tspan></text>
<line x1="380" y1="320" x2="508.6" y2="473.2" stroke="#cfc8b8" stroke-width="1"/>
<text x="516" y="482" fill="#333" font-size="12.5" text-anchor="start" dominant-baseline="middle"><tspan x="516" dy="-6">Food</tspan><tspan x="516" dy="13">Security</tspan></text>
<line x1="380" y1="320" x2="380.0" y2="520.0" stroke="#cfc8b8" stroke-width="1"/>
<text x="380" y="532" fill="#333" font-size="12.5" text-anchor="middle" dominant-baseline="middle"><tspan x="380" dy="0">Marginality</tspan></text>
<line x1="380" y1="320" x2="251.4" y2="473.2" stroke="#cfc8b8" stroke-width="1"/>
<text x="244" y="482" fill="#333" font-size="12.5" text-anchor="end" dominant-baseline="middle"><tspan x="244" dy="0">Cost</tspan></text>
<line x1="380" y1="320" x2="183.0" y2="354.7" stroke="#cfc8b8" stroke-width="1"/>
<text x="171" y="357" fill="#333" font-size="12.5" text-anchor="end" dominant-baseline="middle"><tspan x="171" dy="0">Security</tspan></text>
<line x1="380" y1="320" x2="206.8" y2="220.0" stroke="#cfc8b8" stroke-width="1"/>
<text x="196" y="214" fill="#333" font-size="12.5" text-anchor="end" dominant-baseline="middle"><tspan x="196" dy="0">Water</tspan></text>
<line x1="380" y1="320" x2="311.6" y2="132.1" stroke="#cfc8b8" stroke-width="1"/>
<text x="307" y="121" fill="#333" font-size="12.5" text-anchor="end" dominant-baseline="middle"><tspan x="307" dy="0">Ecosystems</tspan></text>
<polygon points="415.6,222.3 456.2,276.0 494.2,340.1 472.6,430.3 380.0,400.0 269.4,451.8 250.0,342.9 296.9,272.0 341.7,214.8" fill="#3b6ea5" fill-opacity="0.16" stroke="#3b6ea5" stroke-width="1.6" stroke-opacity="0.7"/>
<circle cx="380" cy="320" r="3.2" fill="#333"/>
<text x="380" y="336" fill="#2e8b3d" font-size="11.5" text-anchor="middle" font-style="italic">promoting benefit</text>
<text x="380" y="188" fill="#6f6d66" font-size="11.5" text-anchor="middle" font-weight="600">avoiding harm</text>
<text x="380" y="148" fill="#b07d12" font-size="11.5" text-anchor="middle" font-style="italic">causing harm</text>
</svg>